<?xml version="1.0" encoding="UTF-8"?>
<svg xmlns="http://www.w3.org/2000/svg" xmlns:xlink="http://www.w3.org/1999/xlink" width="30px" height="30px" viewBox="0 0 100 50" version="1.1">
<defs>
<clipPath id="clip1">
  <path d="M 32 17.066406 L 62.933594 17.066406 L 62.933594 27.734375 L 32 27.734375 Z M 32 17.066406 "/>
</clipPath>
<clipPath id="clip2">
  <path d="M 27.828125 17.09375 L 58.101562 13.324219 L 65.160156 27.488281 L 34.882812 31.261719 Z M 27.828125 17.09375 "/>
</clipPath>
<clipPath id="clip3">
  <path d="M 30.339844 22.136719 L 32.359375 26.191406 C 33.746094 28.976562 39.390625 30.671875 44.964844 29.980469 L 54.953125 28.734375 C 60.527344 28.042969 63.917969 25.21875 62.53125 22.433594 L 60.511719 18.382812 C 59.125 15.59375 53.480469 13.898438 47.910156 14.59375 L 37.917969 15.835938 C 32.347656 16.53125 28.953125 19.351562 30.339844 22.136719 Z M 30.339844 22.136719 "/>
</clipPath>
<clipPath id="clip4">
  <path d="M 27.828125 17.09375 L 57.910156 13.347656 L 64.964844 27.515625 L 34.882812 31.261719 Z M 27.828125 17.09375 "/>
</clipPath>
<clipPath id="clip5">
  <path d="M 58 13.335938 L 27.917969 17.082031 L 34.972656 31.25 L 65.054688 27.503906 Z M 58 13.335938 "/>
</clipPath>
<clipPath id="clip6">
  <path d="M 31.199219 16.800781 L 62.933594 16.800781 L 62.933594 28.132812 L 31.199219 28.132812 Z M 31.199219 16.800781 "/>
</clipPath>
<clipPath id="clip7">
  <path d="M 27.828125 17.09375 L 58.101562 13.324219 L 65.160156 27.488281 L 34.882812 31.261719 Z M 27.828125 17.09375 "/>
</clipPath>
<clipPath id="clip8">
  <path d="M 30.339844 22.136719 L 32.359375 26.191406 C 33.746094 28.976562 39.390625 30.671875 44.964844 29.980469 L 54.953125 28.734375 C 60.527344 28.042969 63.917969 25.21875 62.53125 22.433594 L 60.511719 18.382812 C 59.125 15.59375 53.480469 13.898438 47.910156 14.59375 L 37.917969 15.835938 C 32.347656 16.53125 28.953125 19.351562 30.339844 22.136719 Z M 30.339844 22.136719 "/>
</clipPath>
<clipPath id="clip9">
  <path d="M 27.828125 17.09375 L 57.910156 13.347656 L 64.964844 27.515625 L 34.882812 31.261719 Z M 27.828125 17.09375 "/>
</clipPath>
<clipPath id="clip10">
  <path d="M 58 13.335938 L 27.917969 17.082031 L 34.972656 31.25 L 65.054688 27.503906 Z M 58 13.335938 "/>
</clipPath>
</defs>
<g id="surface1">
<g clip-path="url(#clip1)" clip-rule="nonzero">
<g clip-path="url(#clip2)" clip-rule="nonzero">
<g clip-path="url(#clip3)" clip-rule="nonzero">
<g clip-path="url(#clip4)" clip-rule="nonzero">
<g clip-path="url(#clip5)" clip-rule="nonzero">
<path style=" stroke:none;fill-rule:nonzero;fill:rgb(100%,19.215686%,19.215686%);fill-opacity:1;" d="M 37.023438 17.378906 C 40.566406 16.933594 45.261719 17.277344 49.722656 18.179688 C 45.816406 17.460938 41.789062 17.207031 38.703125 17.59375 C 32.917969 18.316406 32.625 21.023438 38.046875 23.636719 C 43.464844 26.25 52.546875 27.78125 58.332031 27.054688 C 61.417969 26.667969 62.941406 25.714844 62.863281 24.515625 C 63.210938 25.933594 61.59375 27.070312 58.050781 27.515625 C 51.855469 28.292969 42.128906 26.652344 36.320312 23.855469 C 30.511719 21.054688 30.828125 18.15625 37.023438 17.378906 Z M 37.023438 17.378906 "/>
</g>
</g>
</g>
</g>
</g>
<g clip-path="url(#clip6)" clip-rule="nonzero">
<g clip-path="url(#clip7)" clip-rule="nonzero">
<g clip-path="url(#clip8)" clip-rule="nonzero">
<g clip-path="url(#clip9)" clip-rule="nonzero">
<g clip-path="url(#clip10)" clip-rule="nonzero">
<path style=" stroke:none;fill-rule:nonzero;fill:rgb(100%,19.215686%,19.215686%);fill-opacity:1;" d="M 42.714844 17.03125 C 33.421875 16.394531 28.714844 18.824219 32.722656 22.132812 C 36.585938 25.425781 47.839844 28.253906 55.992188 27.992188 C 61.234375 27.859375 64.304688 26.441406 63.527344 24.472656 C 64.199219 26.65625 60.183594 28.085938 53.824219 27.871094 C 44.285156 27.601562 33.285156 23.992188 31.808594 20.644531 C 30.640625 18.121094 35.3125 16.589844 42.714844 17.03125 Z M 42.714844 17.03125 "/>
</g>
</g>
</g>
</g>
</g>
<path style=" stroke:none;fill-rule:nonzero;fill:rgb(21.960784%,71.372549%,100%);fill-opacity:1;" d="M 55.214844 24.347656 L 52.921875 24.347656 L 52.015625 23.15625 L 47.820312 23.15625 L 46.953125 24.347656 L 44.71875 24.347656 L 48.792969 19.113281 L 51.035156 19.113281 Z M 51.332031 22.277344 L 49.894531 20.335938 L 48.472656 22.277344 Z M 51.332031 22.277344 "/>
<path style=" stroke:none;fill-rule:nonzero;fill:rgb(21.960784%,71.372549%,100%);fill-opacity:1;" d="M 55.808594 24.347656 L 55.808594 19.113281 L 57.867188 19.113281 L 62.152344 22.609375 L 62.152344 19.113281 L 64.113281 19.113281 L 64.113281 24.347656 L 61.992188 24.347656 L 57.769531 20.9375 L 57.769531 24.347656 Z M 55.808594 24.347656 "/>
<path style=" stroke:none;fill-rule:nonzero;fill:rgb(0%,0%,0%);fill-opacity:1;" d="M 38.339844 25.171875 C 38.476562 25.171875 38.597656 25.179688 38.699219 25.203125 C 38.804688 25.222656 38.886719 25.25 38.9375 25.285156 C 38.992188 25.324219 39.023438 25.363281 39.023438 25.410156 C 39.023438 25.4375 39.015625 25.464844 39 25.484375 C 38.941406 25.589844 38.769531 25.65625 38.488281 25.683594 C 38.585938 25.695312 38.660156 25.71875 38.71875 25.753906 C 38.777344 25.785156 38.804688 25.828125 38.804688 25.875 C 38.804688 25.898438 38.796875 25.925781 38.78125 25.957031 C 38.734375 26.035156 38.644531 26.097656 38.507812 26.136719 C 38.371094 26.171875 38.179688 26.191406 37.929688 26.191406 L 36.65625 26.191406 C 36.613281 26.191406 36.582031 26.1875 36.558594 26.179688 C 36.535156 26.175781 36.523438 26.164062 36.523438 26.152344 C 36.523438 26.144531 36.523438 26.136719 36.53125 26.128906 C 36.539062 26.121094 36.554688 26.113281 36.570312 26.105469 C 36.589844 26.097656 36.601562 26.09375 36.605469 26.09375 C 36.636719 26.085938 36.664062 26.074219 36.683594 26.0625 C 36.703125 26.054688 36.71875 26.035156 36.734375 26.011719 L 37.109375 25.347656 C 37.117188 25.335938 37.121094 25.324219 37.121094 25.3125 C 37.121094 25.300781 37.117188 25.289062 37.109375 25.28125 C 37.101562 25.273438 37.09375 25.265625 37.085938 25.253906 C 37.066406 25.242188 37.054688 25.230469 37.054688 25.222656 C 37.054688 25.21875 37.054688 25.214844 37.058594 25.207031 C 37.066406 25.191406 37.085938 25.183594 37.113281 25.179688 C 37.140625 25.171875 37.183594 25.171875 37.242188 25.171875 Z M 38.199219 25.453125 C 38.214844 25.429688 38.222656 25.40625 38.222656 25.386719 C 38.222656 25.335938 38.160156 25.308594 38.042969 25.308594 L 37.90625 25.308594 L 37.742188 25.59375 L 37.875 25.59375 C 37.960938 25.59375 38.03125 25.585938 38.082031 25.5625 C 38.128906 25.542969 38.167969 25.503906 38.199219 25.453125 Z M 37.976562 25.902344 C 37.992188 25.875 38 25.855469 38 25.835938 C 38 25.78125 37.9375 25.75 37.808594 25.75 L 37.65625 25.75 L 37.480469 26.054688 L 37.636719 26.054688 C 37.722656 26.054688 37.792969 26.042969 37.847656 26.019531 C 37.902344 26 37.945312 25.957031 37.976562 25.902344 Z M 37.976562 25.902344 "/>
<path style=" stroke:none;fill-rule:nonzero;fill:rgb(0%,0%,0%);fill-opacity:1;" d="M 40.589844 25.371094 C 40.847656 25.371094 41.035156 25.394531 41.152344 25.433594 C 41.269531 25.476562 41.328125 25.53125 41.328125 25.59375 C 41.328125 25.613281 41.324219 25.628906 41.3125 25.648438 C 41.28125 25.714844 41.199219 25.761719 41.054688 25.792969 C 40.917969 25.820312 40.753906 25.835938 40.5625 25.835938 C 40.464844 25.835938 40.375 25.832031 40.292969 25.828125 C 40.289062 25.878906 40.320312 25.917969 40.375 25.9375 C 40.4375 25.960938 40.519531 25.96875 40.625 25.96875 C 40.675781 25.96875 40.722656 25.96875 40.769531 25.960938 C 40.8125 25.957031 40.871094 25.949219 40.9375 25.9375 C 40.996094 25.925781 41.035156 25.921875 41.054688 25.921875 C 41.078125 25.921875 41.089844 25.925781 41.089844 25.941406 C 41.089844 25.976562 41.066406 26.015625 41.011719 26.054688 C 40.953125 26.09375 40.871094 26.125 40.765625 26.152344 C 40.65625 26.183594 40.523438 26.195312 40.371094 26.195312 C 40.144531 26.195312 39.957031 26.167969 39.8125 26.109375 C 39.667969 26.054688 39.597656 25.96875 39.597656 25.859375 C 39.597656 25.828125 39.605469 25.792969 39.621094 25.753906 C 39.671875 25.628906 39.78125 25.53125 39.957031 25.46875 C 40.128906 25.40625 40.339844 25.371094 40.589844 25.371094 Z M 40.3125 25.734375 C 40.324219 25.734375 40.332031 25.734375 40.347656 25.734375 C 40.433594 25.734375 40.5 25.714844 40.542969 25.675781 C 40.585938 25.636719 40.609375 25.59375 40.609375 25.542969 C 40.605469 25.515625 40.589844 25.5 40.558594 25.5 C 40.539062 25.5 40.511719 25.507812 40.480469 25.527344 C 40.449219 25.542969 40.417969 25.570312 40.390625 25.609375 C 40.359375 25.644531 40.332031 25.683594 40.3125 25.734375 Z M 40.3125 25.734375 "/>
<path style=" stroke:none;fill-rule:nonzero;fill:rgb(0%,0%,0%);fill-opacity:1;" d="M 47.054688 25.148438 C 47.3125 25.148438 47.511719 25.179688 47.660156 25.238281 C 47.804688 25.300781 47.878906 25.386719 47.878906 25.5 C 47.878906 25.554688 47.863281 25.613281 47.828125 25.675781 C 47.769531 25.789062 47.671875 25.886719 47.542969 25.96875 C 47.414062 26.046875 47.261719 26.109375 47.082031 26.148438 C 46.90625 26.191406 46.710938 26.210938 46.503906 26.210938 C 46.246094 26.210938 46.046875 26.179688 45.898438 26.117188 C 45.753906 26.058594 45.683594 25.96875 45.683594 25.855469 C 45.683594 25.804688 45.699219 25.742188 45.738281 25.675781 C 45.796875 25.5625 45.886719 25.464844 46.015625 25.386719 C 46.144531 25.308594 46.296875 25.25 46.476562 25.207031 C 46.652344 25.167969 46.847656 25.148438 47.054688 25.148438 Z M 47 25.296875 C 46.9375 25.296875 46.882812 25.308594 46.832031 25.335938 C 46.785156 25.359375 46.738281 25.398438 46.6875 25.453125 C 46.640625 25.507812 46.589844 25.585938 46.535156 25.6875 C 46.453125 25.832031 46.414062 25.929688 46.414062 25.984375 C 46.414062 26.015625 46.421875 26.039062 46.445312 26.050781 C 46.46875 26.066406 46.503906 26.074219 46.554688 26.074219 C 46.613281 26.074219 46.667969 26.058594 46.714844 26.035156 C 46.765625 26.011719 46.816406 25.96875 46.863281 25.917969 C 46.910156 25.859375 46.960938 25.785156 47.019531 25.6875 C 47.097656 25.546875 47.136719 25.445312 47.136719 25.390625 C 47.136719 25.355469 47.125 25.335938 47.105469 25.320312 C 47.082031 25.304688 47.046875 25.296875 47 25.296875 Z M 47 25.296875 "/>
<path style=" stroke:none;fill-rule:nonzero;fill:rgb(0%,0%,0%);fill-opacity:1;" d="M 49.925781 25.378906 C 50.042969 25.378906 50.136719 25.398438 50.203125 25.433594 C 50.269531 25.46875 50.304688 25.511719 50.304688 25.5625 C 50.304688 25.582031 50.300781 25.597656 50.292969 25.613281 C 50.273438 25.65625 50.234375 25.6875 50.175781 25.710938 C 50.117188 25.734375 50.050781 25.746094 49.972656 25.746094 C 49.894531 25.746094 49.835938 25.738281 49.792969 25.71875 C 49.753906 25.699219 49.71875 25.675781 49.691406 25.644531 C 49.671875 25.625 49.65625 25.613281 49.644531 25.605469 C 49.628906 25.597656 49.613281 25.59375 49.59375 25.59375 C 49.574219 25.59375 49.554688 25.597656 49.539062 25.605469 C 49.523438 25.613281 49.511719 25.628906 49.5 25.648438 L 49.265625 26.03125 C 49.257812 26.035156 49.257812 26.042969 49.257812 26.054688 C 49.257812 26.066406 49.261719 26.078125 49.277344 26.089844 C 49.292969 26.097656 49.316406 26.105469 49.34375 26.113281 C 49.367188 26.121094 49.386719 26.128906 49.394531 26.132812 C 49.402344 26.136719 49.40625 26.144531 49.402344 26.152344 C 49.394531 26.167969 49.382812 26.175781 49.355469 26.183594 C 49.332031 26.1875 49.289062 26.191406 49.226562 26.191406 L 48.441406 26.191406 C 48.386719 26.191406 48.351562 26.1875 48.328125 26.179688 C 48.300781 26.167969 48.292969 26.15625 48.300781 26.144531 C 48.3125 26.128906 48.332031 26.121094 48.363281 26.113281 C 48.394531 26.105469 48.421875 26.09375 48.441406 26.082031 C 48.460938 26.070312 48.480469 26.054688 48.492188 26.027344 L 48.765625 25.585938 C 48.769531 25.582031 48.773438 25.574219 48.773438 25.5625 C 48.773438 25.554688 48.765625 25.542969 48.757812 25.539062 C 48.75 25.53125 48.734375 25.523438 48.714844 25.515625 C 48.695312 25.507812 48.679688 25.5 48.671875 25.496094 C 48.664062 25.488281 48.664062 25.480469 48.667969 25.46875 C 48.679688 25.445312 48.742188 25.425781 48.859375 25.40625 C 48.976562 25.390625 49.097656 25.378906 49.226562 25.378906 C 49.3125 25.378906 49.378906 25.390625 49.4375 25.410156 C 49.492188 25.429688 49.527344 25.453125 49.542969 25.488281 C 49.640625 25.417969 49.769531 25.378906 49.925781 25.378906 Z M 49.925781 25.378906 "/>
<path style=" stroke:none;fill-rule:nonzero;fill:rgb(0%,0%,0%);fill-opacity:1;" d="M 51.617188 25.378906 C 51.734375 25.378906 51.820312 25.390625 51.878906 25.414062 C 51.933594 25.4375 51.960938 25.46875 51.960938 25.503906 C 51.960938 25.53125 51.953125 25.550781 51.941406 25.574219 L 51.65625 26.03125 C 51.652344 26.042969 51.648438 26.054688 51.648438 26.0625 C 51.648438 26.078125 51.652344 26.085938 51.660156 26.09375 C 51.671875 26.105469 51.6875 26.113281 51.707031 26.117188 C 51.722656 26.125 51.730469 26.128906 51.738281 26.136719 C 51.742188 26.140625 51.742188 26.144531 51.742188 26.152344 C 51.730469 26.167969 51.707031 26.175781 51.679688 26.183594 C 51.648438 26.1875 51.601562 26.191406 51.535156 26.191406 L 50.835938 26.191406 C 50.785156 26.191406 50.746094 26.1875 50.722656 26.179688 C 50.699219 26.167969 50.691406 26.15625 50.699219 26.144531 C 50.707031 26.128906 50.726562 26.121094 50.761719 26.113281 C 50.792969 26.105469 50.816406 26.09375 50.835938 26.082031 C 50.859375 26.070312 50.875 26.054688 50.890625 26.027344 L 51.15625 25.585938 C 51.164062 25.578125 51.164062 25.570312 51.164062 25.5625 C 51.164062 25.550781 51.160156 25.542969 51.148438 25.535156 C 51.140625 25.53125 51.125 25.523438 51.101562 25.515625 C 51.082031 25.507812 51.070312 25.5 51.0625 25.496094 C 51.054688 25.488281 51.050781 25.480469 51.058594 25.46875 C 51.070312 25.445312 51.136719 25.425781 51.253906 25.40625 C 51.371094 25.390625 51.492188 25.378906 51.617188 25.378906 Z M 51.824219 25.042969 C 51.902344 25.042969 51.96875 25.054688 52.019531 25.082031 C 52.074219 25.105469 52.101562 25.140625 52.101562 25.175781 C 52.101562 25.203125 52.089844 25.230469 52.0625 25.253906 C 52.035156 25.28125 51.996094 25.300781 51.945312 25.316406 C 51.894531 25.332031 51.839844 25.339844 51.777344 25.339844 C 51.699219 25.339844 51.632812 25.328125 51.582031 25.300781 C 51.53125 25.277344 51.5 25.242188 51.5 25.203125 C 51.5 25.179688 51.511719 25.152344 51.535156 25.128906 C 51.5625 25.105469 51.601562 25.082031 51.652344 25.066406 C 51.703125 25.050781 51.757812 25.042969 51.824219 25.042969 Z M 51.824219 25.042969 "/>
<path style=" stroke:none;fill-rule:nonzero;fill:rgb(0%,0%,0%);fill-opacity:1;" d="M 54.40625 25.128906 C 54.472656 25.128906 54.535156 25.136719 54.597656 25.152344 C 54.65625 25.164062 54.707031 25.183594 54.746094 25.207031 C 54.789062 25.230469 54.808594 25.257812 54.808594 25.285156 C 54.808594 25.34375 54.726562 25.375 54.5625 25.375 C 54.515625 25.375 54.480469 25.375 54.457031 25.371094 C 54.429688 25.367188 54.398438 25.359375 54.363281 25.351562 C 54.359375 25.359375 54.355469 25.371094 54.355469 25.382812 C 54.355469 25.398438 54.359375 25.417969 54.371094 25.441406 C 54.382812 25.464844 54.398438 25.484375 54.414062 25.503906 C 54.457031 25.535156 54.480469 25.574219 54.480469 25.617188 C 54.480469 25.636719 54.472656 25.660156 54.464844 25.6875 C 54.4375 25.742188 54.382812 25.789062 54.300781 25.835938 C 54.21875 25.878906 54.113281 25.910156 53.984375 25.9375 C 53.851562 25.960938 53.710938 25.972656 53.554688 25.972656 C 53.4375 25.972656 53.324219 25.96875 53.222656 25.960938 C 53.191406 25.976562 53.175781 25.992188 53.175781 26.011719 C 53.175781 26.023438 53.1875 26.035156 53.214844 26.046875 C 53.238281 26.054688 53.277344 26.058594 53.335938 26.058594 L 53.796875 26.058594 C 53.953125 26.058594 54.074219 26.070312 54.164062 26.097656 C 54.253906 26.125 54.296875 26.164062 54.296875 26.214844 C 54.296875 26.230469 54.289062 26.25 54.277344 26.269531 C 54.25 26.308594 54.195312 26.347656 54.109375 26.378906 C 54.023438 26.414062 53.902344 26.441406 53.742188 26.464844 C 53.585938 26.484375 53.394531 26.496094 53.167969 26.496094 C 52.96875 26.496094 52.796875 26.488281 52.660156 26.46875 C 52.519531 26.453125 52.417969 26.429688 52.351562 26.398438 C 52.28125 26.371094 52.246094 26.335938 52.246094 26.300781 C 52.246094 26.292969 52.25 26.277344 52.257812 26.265625 C 52.277344 26.234375 52.316406 26.207031 52.382812 26.191406 C 52.449219 26.171875 52.554688 26.160156 52.703125 26.152344 C 52.652344 26.128906 52.625 26.101562 52.625 26.066406 C 52.625 26.058594 52.628906 26.046875 52.632812 26.03125 C 52.667969 25.980469 52.765625 25.941406 52.925781 25.917969 C 52.769531 25.875 52.691406 25.8125 52.691406 25.730469 C 52.691406 25.707031 52.699219 25.683594 52.714844 25.660156 C 52.738281 25.605469 52.792969 25.558594 52.875 25.515625 C 52.960938 25.472656 53.066406 25.4375 53.195312 25.414062 C 53.328125 25.386719 53.46875 25.375 53.625 25.375 C 53.871094 25.375 54.0625 25.390625 54.203125 25.421875 C 54.171875 25.398438 54.144531 25.375 54.125 25.347656 C 54.109375 25.320312 54.101562 25.292969 54.101562 25.269531 C 54.101562 25.230469 54.125 25.199219 54.175781 25.171875 C 54.226562 25.144531 54.300781 25.128906 54.40625 25.128906 Z M 53.738281 25.675781 C 53.773438 25.621094 53.789062 25.582031 53.789062 25.554688 C 53.789062 25.519531 53.757812 25.503906 53.703125 25.503906 C 53.648438 25.503906 53.601562 25.515625 53.5625 25.542969 C 53.527344 25.566406 53.488281 25.609375 53.453125 25.675781 C 53.417969 25.726562 53.402344 25.769531 53.402344 25.796875 C 53.402344 25.828125 53.429688 25.84375 53.488281 25.84375 C 53.539062 25.84375 53.582031 25.832031 53.621094 25.808594 C 53.660156 25.78125 53.699219 25.738281 53.738281 25.675781 Z M 53.128906 26.210938 C 53.070312 26.210938 53.019531 26.210938 52.972656 26.207031 C 52.945312 26.222656 52.933594 26.242188 52.933594 26.269531 C 52.9375 26.296875 52.957031 26.3125 52.996094 26.324219 C 53.039062 26.335938 53.101562 26.339844 53.183594 26.339844 C 53.285156 26.339844 53.371094 26.332031 53.433594 26.316406 C 53.5 26.300781 53.53125 26.28125 53.53125 26.25 C 53.53125 26.238281 53.519531 26.230469 53.5 26.222656 C 53.484375 26.214844 53.457031 26.210938 53.421875 26.210938 Z M 53.128906 26.210938 "/>
<path style=" stroke:none;fill-rule:nonzero;fill:rgb(0%,0%,0%);fill-opacity:1;" d="M 55.910156 25.378906 C 56.03125 25.378906 56.117188 25.390625 56.175781 25.414062 C 56.230469 25.4375 56.257812 25.46875 56.257812 25.503906 C 56.257812 25.53125 56.25 25.550781 56.238281 25.574219 L 55.953125 26.03125 C 55.945312 26.042969 55.945312 26.054688 55.945312 26.0625 C 55.945312 26.078125 55.949219 26.085938 55.957031 26.09375 C 55.96875 26.105469 55.984375 26.113281 56.003906 26.117188 C 56.015625 26.125 56.027344 26.128906 56.03125 26.136719 C 56.039062 26.140625 56.039062 26.144531 56.035156 26.152344 C 56.023438 26.167969 56.003906 26.175781 55.972656 26.183594 C 55.941406 26.1875 55.894531 26.191406 55.832031 26.191406 L 55.132812 26.191406 C 55.082031 26.191406 55.042969 26.1875 55.019531 26.179688 C 54.996094 26.167969 54.988281 26.15625 54.996094 26.144531 C 55.003906 26.128906 55.023438 26.121094 55.058594 26.113281 C 55.089844 26.105469 55.113281 26.09375 55.132812 26.082031 C 55.15625 26.070312 55.171875 26.054688 55.1875 26.027344 L 55.453125 25.585938 C 55.457031 25.578125 55.460938 25.570312 55.460938 25.5625 C 55.460938 25.550781 55.457031 25.542969 55.445312 25.535156 C 55.4375 25.53125 55.421875 25.523438 55.398438 25.515625 C 55.378906 25.507812 55.367188 25.5 55.359375 25.496094 C 55.347656 25.488281 55.347656 25.480469 55.351562 25.46875 C 55.367188 25.445312 55.433594 25.425781 55.550781 25.40625 C 55.664062 25.390625 55.785156 25.378906 55.910156 25.378906 Z M 56.121094 25.042969 C 56.195312 25.042969 56.261719 25.054688 56.316406 25.082031 C 56.371094 25.105469 56.398438 25.140625 56.398438 25.175781 C 56.398438 25.203125 56.382812 25.230469 56.359375 25.253906 C 56.328125 25.28125 56.289062 25.300781 56.242188 25.316406 C 56.191406 25.332031 56.132812 25.339844 56.074219 25.339844 C 55.996094 25.339844 55.929688 25.328125 55.878906 25.300781 C 55.824219 25.277344 55.796875 25.242188 55.796875 25.203125 C 55.796875 25.179688 55.808594 25.152344 55.832031 25.128906 C 55.859375 25.105469 55.898438 25.082031 55.949219 25.066406 C 56 25.050781 56.054688 25.042969 56.121094 25.042969 Z M 56.121094 25.042969 "/>
<path style=" stroke:none;fill-rule:nonzero;fill:rgb(0%,0%,0%);fill-opacity:1;" d="M 58.742188 25.980469 C 58.738281 25.984375 58.734375 25.988281 58.734375 25.996094 C 58.734375 26.003906 58.738281 26.011719 58.742188 26.015625 C 58.75 26.019531 58.761719 26.019531 58.777344 26.019531 C 58.800781 26.019531 58.820312 26.015625 58.839844 26.003906 C 58.855469 25.996094 58.867188 25.988281 58.871094 25.988281 C 58.882812 25.988281 58.890625 25.992188 58.898438 26 C 58.902344 26.003906 58.90625 26.011719 58.90625 26.023438 C 58.90625 26.050781 58.890625 26.082031 58.847656 26.109375 C 58.808594 26.136719 58.75 26.160156 58.667969 26.179688 C 58.589844 26.195312 58.496094 26.207031 58.382812 26.207031 C 58.25 26.207031 58.144531 26.191406 58.0625 26.160156 C 57.984375 26.128906 57.941406 26.085938 57.9375 26.03125 C 57.9375 25.996094 57.957031 25.953125 57.996094 25.90625 L 58.164062 25.683594 C 58.175781 25.671875 58.179688 25.660156 58.179688 25.652344 C 58.179688 25.640625 58.171875 25.628906 58.152344 25.621094 C 58.132812 25.613281 58.113281 25.609375 58.09375 25.609375 C 58.046875 25.609375 58 25.621094 57.960938 25.640625 C 57.921875 25.660156 57.890625 25.6875 57.871094 25.71875 L 57.683594 26.03125 C 57.675781 26.042969 57.671875 26.054688 57.671875 26.0625 C 57.671875 26.078125 57.675781 26.085938 57.683594 26.09375 C 57.695312 26.101562 57.710938 26.109375 57.730469 26.117188 C 57.742188 26.125 57.753906 26.128906 57.757812 26.136719 C 57.765625 26.140625 57.765625 26.144531 57.765625 26.152344 C 57.753906 26.167969 57.734375 26.175781 57.707031 26.183594 C 57.675781 26.1875 57.625 26.191406 57.558594 26.191406 L 56.859375 26.191406 C 56.808594 26.191406 56.769531 26.1875 56.746094 26.179688 C 56.722656 26.167969 56.714844 26.15625 56.722656 26.144531 C 56.730469 26.128906 56.75 26.121094 56.785156 26.113281 C 56.816406 26.105469 56.839844 26.09375 56.859375 26.082031 C 56.882812 26.070312 56.898438 26.054688 56.914062 26.027344 L 57.183594 25.585938 C 57.191406 25.582031 57.191406 25.574219 57.191406 25.5625 C 57.191406 25.554688 57.1875 25.542969 57.175781 25.539062 C 57.167969 25.53125 57.152344 25.523438 57.132812 25.515625 C 57.113281 25.507812 57.101562 25.5 57.09375 25.496094 C 57.085938 25.488281 57.082031 25.480469 57.089844 25.46875 C 57.097656 25.445312 57.164062 25.425781 57.28125 25.40625 C 57.398438 25.390625 57.519531 25.378906 57.648438 25.378906 C 57.75 25.378906 57.832031 25.394531 57.890625 25.421875 C 57.945312 25.449219 57.972656 25.488281 57.96875 25.539062 C 58.050781 25.480469 58.140625 25.4375 58.234375 25.417969 C 58.328125 25.394531 58.429688 25.378906 58.542969 25.378906 C 58.667969 25.378906 58.769531 25.398438 58.84375 25.4375 C 58.921875 25.472656 58.960938 25.523438 58.960938 25.585938 C 58.960938 25.617188 58.949219 25.644531 58.925781 25.675781 Z M 58.742188 25.980469 "/>
<path style=" stroke:none;fill-rule:nonzero;fill:rgb(0%,0%,0%);fill-opacity:1;" d="M 60.746094 25.378906 C 60.980469 25.378906 61.167969 25.402344 61.308594 25.445312 C 61.453125 25.488281 61.523438 25.554688 61.523438 25.644531 C 61.523438 25.679688 61.511719 25.714844 61.484375 25.757812 L 61.359375 25.96875 C 61.355469 25.972656 61.355469 25.980469 61.355469 25.984375 C 61.355469 26 61.371094 26.011719 61.398438 26.011719 C 61.421875 26.011719 61.441406 26.003906 61.460938 25.996094 C 61.476562 25.984375 61.488281 25.980469 61.492188 25.980469 C 61.503906 25.980469 61.511719 25.980469 61.519531 25.988281 C 61.527344 25.996094 61.53125 26.003906 61.53125 26.015625 C 61.53125 26.039062 61.511719 26.066406 61.46875 26.097656 C 61.421875 26.125 61.363281 26.152344 61.289062 26.167969 C 61.214844 26.1875 61.136719 26.195312 61.050781 26.195312 C 60.941406 26.195312 60.851562 26.1875 60.777344 26.167969 C 60.703125 26.148438 60.648438 26.117188 60.621094 26.082031 C 60.558594 26.117188 60.484375 26.148438 60.402344 26.167969 C 60.316406 26.1875 60.230469 26.195312 60.136719 26.195312 C 60.027344 26.195312 59.933594 26.183594 59.859375 26.164062 C 59.785156 26.144531 59.734375 26.117188 59.699219 26.082031 C 59.660156 26.050781 59.644531 26.015625 59.644531 25.980469 C 59.644531 25.960938 59.644531 25.945312 59.652344 25.929688 C 59.683594 25.859375 59.753906 25.808594 59.863281 25.773438 C 59.972656 25.738281 60.105469 25.71875 60.253906 25.71875 C 60.425781 25.71875 60.589844 25.730469 60.753906 25.757812 L 60.832031 25.65625 C 60.859375 25.613281 60.871094 25.578125 60.871094 25.554688 C 60.871094 25.53125 60.851562 25.515625 60.824219 25.5 C 60.792969 25.488281 60.746094 25.484375 60.679688 25.484375 C 60.695312 25.5 60.703125 25.515625 60.703125 25.53125 C 60.703125 25.570312 60.671875 25.601562 60.613281 25.628906 C 60.554688 25.660156 60.472656 25.671875 60.367188 25.671875 C 60.269531 25.671875 60.191406 25.660156 60.136719 25.640625 C 60.078125 25.621094 60.050781 25.589844 60.050781 25.558594 C 60.050781 25.507812 60.109375 25.464844 60.222656 25.429688 C 60.335938 25.398438 60.511719 25.378906 60.746094 25.378906 Z M 60.578125 25.84375 C 60.519531 25.84375 60.46875 25.855469 60.433594 25.878906 C 60.398438 25.898438 60.378906 25.921875 60.378906 25.949219 C 60.378906 25.964844 60.386719 25.976562 60.402344 25.988281 C 60.417969 26 60.441406 26.003906 60.472656 26.003906 C 60.496094 26.003906 60.523438 26 60.554688 25.988281 C 60.589844 25.976562 60.613281 25.960938 60.625 25.9375 L 60.691406 25.847656 C 60.65625 25.847656 60.617188 25.84375 60.578125 25.84375 Z M 60.578125 25.84375 "/>
<path style=" stroke:none;fill-rule:nonzero;fill:rgb(0%,0%,0%);fill-opacity:1;" d="M 63.25 25.058594 C 63.367188 25.058594 63.453125 25.070312 63.507812 25.089844 C 63.566406 25.113281 63.59375 25.144531 63.59375 25.183594 C 63.59375 25.207031 63.585938 25.230469 63.574219 25.25 L 63.089844 26.03125 C 63.085938 26.042969 63.082031 26.054688 63.082031 26.0625 C 63.082031 26.078125 63.085938 26.085938 63.09375 26.09375 C 63.105469 26.105469 63.121094 26.113281 63.140625 26.117188 C 63.15625 26.125 63.164062 26.128906 63.171875 26.136719 C 63.179688 26.140625 63.179688 26.144531 63.175781 26.152344 C 63.164062 26.167969 63.140625 26.175781 63.113281 26.183594 C 63.082031 26.1875 63.035156 26.191406 62.972656 26.191406 L 62.273438 26.191406 C 62.222656 26.191406 62.183594 26.1875 62.15625 26.179688 C 62.132812 26.167969 62.125 26.15625 62.132812 26.144531 C 62.140625 26.128906 62.160156 26.121094 62.195312 26.113281 C 62.226562 26.105469 62.25 26.09375 62.269531 26.082031 C 62.292969 26.070312 62.308594 26.054688 62.324219 26.027344 L 62.789062 25.265625 C 62.796875 25.253906 62.800781 25.246094 62.800781 25.242188 C 62.800781 25.230469 62.792969 25.222656 62.78125 25.214844 C 62.769531 25.207031 62.757812 25.199219 62.742188 25.191406 C 62.71875 25.183594 62.703125 25.175781 62.695312 25.171875 C 62.6875 25.164062 62.683594 25.15625 62.691406 25.144531 C 62.703125 25.121094 62.765625 25.101562 62.882812 25.085938 C 63 25.066406 63.121094 25.058594 63.25 25.058594 Z M 63.25 25.058594 "/>
<path style=" stroke:none;fill-rule:nonzero;fill:rgb(21.960784%,71.372549%,100%);fill-opacity:1;" d="M 35.472656 24.386719 L 35.472656 23.433594 L 40.972656 20.03125 L 36.089844 20.03125 L 36.089844 19.152344 L 43.75 19.152344 L 43.75 19.96875 L 38.015625 23.5 L 43.964844 23.5 L 43.964844 24.386719 Z M 35.472656 24.386719 "/>
</g>
</svg>
